<?xml version="1.0" standalone="no"?>
<svg xmlns:xlink="http://www.w3.org/1999/xlink" id="wave" style="transform:rotate(0deg); transition: 0.3s" viewBox="0 0 1440 130" version="1.1" xmlns="http://www.w3.org/2000/svg"><defs><linearGradient id="sw-gradient-0" x1="0" x2="0" y1="1" y2="0"><stop stop-color="rgba(251, 229, 243, 1)" offset="0%"/><stop stop-color="rgba(251, 229, 243, 1)" offset="100%"/></linearGradient></defs><path style="transform:translate(0, 0px); opacity:1" fill="rgba(251, 229, 243, 1)" d="M0,26L48,39C96,52,192,78,288,80.2C384,82,480,61,576,49.8C672,39,768,39,864,52C960,65,1056,91,1152,104C1248,117,1344,117,1440,106.2C1536,95,1632,74,1728,73.7C1824,74,1920,95,2016,88.8C2112,82,2208,48,2304,34.7C2400,22,2496,30,2592,41.2C2688,52,2784,65,2880,78C2976,91,3072,104,3168,95.3C3264,87,3360,56,3456,47.7C3552,39,3648,52,3744,49.8C3840,48,3936,30,4032,32.5C4128,35,4224,56,4320,60.7C4416,65,4512,52,4608,52C4704,52,4800,65,4896,62.8C4992,61,5088,43,5184,47.7C5280,52,5376,78,5472,93.2C5568,108,5664,113,5760,112.7C5856,113,5952,108,6048,101.8C6144,95,6240,87,6336,82.3C6432,78,6528,78,6624,67.2C6720,56,6816,35,6864,23.8L6912,13L6912,130L6864,130C6816,130,6720,130,6624,130C6528,130,6432,130,6336,130C6240,130,6144,130,6048,130C5952,130,5856,130,5760,130C5664,130,5568,130,5472,130C5376,130,5280,130,5184,130C5088,130,4992,130,4896,130C4800,130,4704,130,4608,130C4512,130,4416,130,4320,130C4224,130,4128,130,4032,130C3936,130,3840,130,3744,130C3648,130,3552,130,3456,130C3360,130,3264,130,3168,130C3072,130,2976,130,2880,130C2784,130,2688,130,2592,130C2496,130,2400,130,2304,130C2208,130,2112,130,2016,130C1920,130,1824,130,1728,130C1632,130,1536,130,1440,130C1344,130,1248,130,1152,130C1056,130,960,130,864,130C768,130,672,130,576,130C480,130,384,130,288,130C192,130,96,130,48,130L0,130Z"/></svg>