<svg width="10" height="10" viewBox="0 0 10 10" fill="none" xmlns="http://www.w3.org/2000/svg">
<path d="M9.50435 0.908716C9.50435 0.709804 9.42533 0.519038 9.28468 0.378386C9.14403 0.237733 8.95326 0.158716 8.75435 0.158716L2.75435 0.121216C2.55544 0.121216 2.36467 0.200234 2.22402 0.340886C2.08337 0.481538 2.00435 0.672303 2.00435 0.871216C2.00435 1.07013 2.08337 1.26089 2.22402 1.40155C2.36467 1.5422 2.55544 1.62122 2.75435 1.62122H6.92435L0.721849 7.83872C0.651552 7.90844 0.595757 7.99139 0.55768 8.08278C0.519604 8.17418 0.5 8.27221 0.5 8.37122C0.5 8.47022 0.519604 8.56825 0.55768 8.65965C0.595757 8.75104 0.651552 8.83399 0.721849 8.90372C0.791571 8.97401 0.874522 9.02981 0.965916 9.06788C1.05731 9.10596 1.15534 9.12556 1.25435 9.12556C1.35336 9.12556 1.45139 9.10596 1.54278 9.06788C1.63418 9.02981 1.71713 8.97401 1.78685 8.90372L8.00435 2.68622V6.87122C8.00435 7.07013 8.08337 7.26089 8.22402 7.40155C8.36467 7.5422 8.55544 7.62122 8.75435 7.62122C8.95326 7.62122 9.14403 7.5422 9.28468 7.40155C9.42533 7.26089 9.50435 7.07013 9.50435 6.87122V0.908716Z" fill="#1E1919"/>
</svg>
